<?xml version="1.0" standalone="no"?>
<!DOCTYPE svg PUBLIC "-//W3C//DTD SVG 20010904//EN"
 "http://www.w3.org/TR/2001/REC-SVG-20010904/DTD/svg10.dtd">
<svg version="1.0" xmlns="http://www.w3.org/2000/svg"
 width="260.000000pt" height="260.000000pt" viewBox="0 0 260.000000 260.000000"
 preserveAspectRatio="xMidYMid meet">
<metadata>
Created by potrace 1.14, written by Peter Selinger 2001-2017
</metadata>
<g transform="translate(0.000000,260.000000) scale(0.100000,-0.100000)"
fill="#000000" stroke="none">
<path d="M0 1300 l0 -1300 1300 0 1300 0 0 1300 0 1300 -1300 0 -1300 0 0
-1300z m330 1023 c0 -15 2 -16 10 -3 9 13 10 13 11 0 3 -26 6 -64 7 -92 2 -19
7 -25 20 -23 9 2 19 4 22 4 3 1 -2 6 -10 11 -13 8 -12 10 3 10 9 0 17 -7 17
-15 0 -8 -5 -15 -11 -15 -6 0 -9 -6 -6 -12 2 -7 10 -12 16 -10 7 1 10 -2 6 -8
-3 -6 -10 -8 -15 -5 -4 3 -10 2 -13 -2 -2 -5 -2 -2 -1 5 2 6 -1 12 -6 12 -6 0
-11 -6 -11 -12 -5 -47 -7 -57 -13 -67 -4 -6 -2 -11 4 -11 6 0 8 -5 3 -12 -4
-7 -6 -24 -4 -37 1 -13 -3 -27 -10 -31 -7 -5 -12 -26 -11 -54 2 -38 -1 -46
-15 -47 -16 0 -15 -2 2 -9 11 -5 17 -9 14 -9 -4 -1 -3 -16 1 -35 4 -19 4 -40
-1 -47 -4 -8 -3 -20 4 -28 7 -8 7 -12 2 -9 -7 4 -10 -11 -9 -43 1 -27 -3 -49
-7 -49 -5 0 -4 -12 1 -26 13 -33 3 -74 -19 -75 -10 0 -11 -2 -3 -6 6 -2 12
-14 12 -24 0 -11 4 -18 9 -14 5 3 12 1 16 -5 3 -6 -1 -13 -10 -17 -15 -5 -15
-7 -2 -14 19 -11 13 -70 -10 -86 -15 -12 -15 -13 -1 -13 9 0 20 -5 24 -12 4
-7 3 -8 -4 -4 -7 4 -12 3 -12 -3 0 -5 6 -11 13 -14 7 -3 2 -9 -13 -15 -18 -8
-20 -11 -7 -11 9 -1 17 -6 17 -12 0 -5 -5 -7 -11 -3 -8 4 -9 -1 -4 -16 14 -45
33 -52 85 -32 8 3 26 6 40 8 52 6 116 21 138 33 12 6 22 9 22 6 0 -4 12 3 26
14 14 11 32 17 41 14 11 -4 14 -2 9 5 -4 7 6 13 28 18 20 3 34 11 33 18 -1 6
4 10 11 9 6 -2 12 2 12 7 0 5 3 9 8 9 4 -1 16 -1 27 0 15 1 17 3 6 10 -12 8
-16 37 -22 179 -1 16 -6 22 -15 18 -12 -4 -12 -2 -4 14 9 17 8 20 -10 20 -11
0 -20 5 -20 11 0 5 -4 8 -9 4 -5 -3 -16 1 -24 9 -8 8 -18 12 -23 8 -5 -4 -1 3
9 15 11 12 14 24 9 27 -6 3 -13 -1 -16 -10 -9 -23 -26 -7 -24 22 2 23 4 24 15
8 7 -10 13 -14 13 -10 0 5 6 3 13 -3 8 -6 18 -7 22 -3 5 4 5 2 1 -5 -4 -7 2
-17 13 -22 26 -14 44 -14 35 0 -3 6 8 3 25 -6 18 -9 29 -20 26 -24 -3 -5 2
-12 10 -15 12 -4 13 -10 6 -24 -7 -13 -6 -23 2 -32 9 -10 9 -13 0 -17 -15 -6
5 -43 23 -43 8 0 9 -11 4 -35 -5 -23 -4 -35 3 -35 5 0 2 -9 -8 -20 -17 -19
-17 -20 1 -20 11 0 15 -3 8 -8 -6 -4 -10 -15 -8 -26 4 -27 -43 -67 -71 -60
-18 4 -25 1 -30 -15 -3 -12 -11 -21 -16 -21 -6 0 -7 5 -4 10 3 6 1 10 -4 10
-6 0 -11 -6 -11 -12 0 -15 -53 -51 -90 -63 -14 -4 -28 -12 -31 -17 -9 -14 -63
-17 -71 -4 -6 8 -8 8 -8 -1 0 -7 -7 -10 -15 -7 -8 4 -22 1 -30 -6 -8 -7 -15
-10 -15 -6 0 4 -13 0 -29 -8 -15 -8 -46 -16 -67 -18 -45 -3 -81 -27 -61 -40 9
-6 9 -8 -1 -8 -7 0 -10 -4 -7 -10 4 -6 -1 -7 -11 -3 -14 5 -16 3 -11 -11 4 -9
3 -15 -2 -11 -5 3 -11 -1 -14 -7 -7 -20 -37 13 -43 47 -3 16 -7 32 -10 36 -2
4 1 11 7 15 8 4 9 3 5 -4 -4 -7 -2 -12 3 -12 6 0 11 7 11 15 0 8 9 23 20 32
21 19 28 39 8 27 -7 -5 -8 -3 -2 7 4 8 7 25 5 38 -1 14 1 21 7 17 6 -3 13 -2
16 3 3 5 -4 12 -17 15 -20 6 -20 7 -4 17 20 12 23 29 5 29 -9 0 -13 18 -13 55
0 30 2 55 5 55 3 0 6 9 7 20 1 13 -2 18 -10 13 -9 -5 -9 -3 0 8 14 17 25 69
15 69 -4 0 -8 20 -9 45 -1 25 2 45 7 45 11 0 7 33 -5 43 -6 4 -4 11 5 17 8 5
10 10 4 10 -7 0 -14 9 -17 20 -3 11 -2 20 3 20 4 0 7 16 5 35 -1 20 2 38 7 41
4 3 8 -2 8 -10 0 -9 4 -16 9 -16 14 0 1 38 -16 44 -8 3 -11 10 -8 16 3 5 3 10
-2 10 -4 0 -8 11 -8 25 0 14 6 25 13 25 6 0 12 5 12 11 0 5 -5 7 -11 3 -8 -4
-9 1 -4 16 6 17 4 21 -6 14 -12 -6 -12 -5 -1 8 17 21 33 78 22 78 -9 0 -6 107
3 117 4 3 0 21 -8 40 -12 29 -13 38 -1 54 7 10 16 16 19 12 4 -3 7 -1 7 5 0 7
5 12 10 12 6 0 10 -8 10 -17z m130 -114 c0 7 6 11 13 8 6 -2 11 -12 9 -21 -3
-14 1 -16 20 -11 13 4 25 7 28 7 22 0 30 -3 25 -11 -3 -6 4 -15 15 -21 11 -6
18 -15 15 -21 -4 -5 -2 -9 2 -9 5 0 9 -10 10 -22 1 -11 6 -24 10 -27 16 -12
13 -30 -5 -24 -14 6 -15 4 -5 -9 7 -8 10 -18 7 -21 -3 -3 -2 -12 2 -19 11 -17
11 -39 1 -60 -5 -12 -4 -18 4 -18 8 0 8 -4 -1 -15 -7 -8 -20 -15 -29 -15 -14
0 -14 -2 -1 -10 11 -7 11 -10 2 -10 -7 0 -11 -4 -7 -9 3 -5 -7 -19 -21 -30
-24 -19 -24 -26 -1 -22 4 0 7 -3 7 -9 0 -5 9 -10 20 -10 11 0 20 -5 20 -12 0
-6 3 -9 6 -5 8 8 44 -25 44 -40 0 -7 -10 -13 -22 -13 -18 0 -20 -2 -8 -9 8 -6
17 -8 21 -5 4 2 10 0 13 -4 3 -5 -11 -8 -30 -7 -38 3 -73 28 -75 54 -1 9 -5 5
-9 -9 -6 -19 -8 -20 -9 -6 -1 12 -6 16 -16 12 -8 -3 -19 2 -24 12 -8 14 -11
14 -11 2 0 -11 -6 -9 -19 8 -12 13 -21 17 -23 11 -5 -15 -74 16 -82 37 -3 9 5
26 18 39 18 18 31 22 54 19 19 -3 46 3 71 15 l40 21 -1 62 c0 35 -3 68 -7 73
-6 10 -7 16 -14 50 -3 11 -10 19 -16 18 -6 -2 -11 4 -11 13 0 9 -5 12 -12 8
-7 -4 -10 -4 -6 1 12 13 -11 45 -32 45 -12 0 -18 6 -17 20 1 18 2 18 19 3 12
-11 18 -12 18 -4z m557 -135 c-3 -3 -12 -4 -19 -1 -8 3 -5 6 6 6 11 1 17 -2
13 -5z m31 -19 c-3 -3 -9 2 -12 12 -6 14 -5 15 5 6 7 -7 10 -15 7 -18z m-28
-11 c0 -8 -19 -13 -24 -6 -3 5 1 9 9 9 8 0 15 -2 15 -3z m464 -30 c3 -8 2 -12
-4 -9 -6 3 -10 10 -10 16 0 14 7 11 14 -7z m299 -154 c3 -11 2 -18 -3 -15 -4
3 -10 14 -13 25 -3 11 -2 18 3 15 4 -3 10 -14 13 -25z m-19 -45 c-4 -8 -11
-15 -16 -15 -6 0 -5 6 2 15 7 8 14 15 16 15 2 0 1 -7 -2 -15z m-1001 -91 c-4
-10 -9 -12 -15 -6 -12 12 -1 35 12 27 5 -3 6 -13 3 -21z m938 -14 c-14 -14
-30 -24 -35 -22 -5 3 -1 9 8 14 13 7 15 13 6 23 -10 12 -7 14 18 12 l29 -2
-26 -25z m-1021 -30 c8 -5 11 -10 5 -10 -5 0 -17 5 -25 10 -8 5 -10 10 -5 10
6 0 17 -5 25 -10z m957 -15 c0 -8 -4 -12 -9 -9 -4 3 -8 0 -8 -6 0 -6 -5 -8
-10 -5 -8 5 -7 11 1 21 15 18 26 18 26 -1z m469 -18 c-4 6 -2 14 4 18 5 3 10
-3 10 -14 0 -22 -14 -28 -25 -11 -4 6 -11 8 -16 5 -5 -3 -6 1 -3 10 6 14 8 14
21 -2 8 -10 12 -13 9 -6z m64 17 c0 -8 -19 -13 -24 -6 -3 5 1 9 9 9 8 0 15 -2
15 -3z m-80 -95 c0 -14 -17 -10 -23 5 -4 10 -1 13 9 9 7 -3 14 -9 14 -14z m-3
-51 c-3 -7 -5 -2 -5 12 0 14 2 19 5 13 2 -7 2 -19 0 -25z m-827 -113 c-7 -9
-15 -13 -19 -10 -3 3 1 10 9 15 21 14 24 12 10 -5z m-100 -85 c0 -5 -5 -10
-11 -10 -5 0 -7 5 -4 10 3 6 8 10 11 10 2 0 4 -4 4 -10z m480 -81 c20 2 22 1
12 -11 -6 -8 -8 -19 -4 -23 4 -5 1 -5 -6 -1 -7 4 -10 12 -7 17 4 5 1 9 -4 9
-6 0 -11 -6 -11 -12 0 -10 -3 -9 -9 1 -5 7 -14 11 -20 7 -7 -5 -9 -1 -5 8 3 9
11 13 18 9 6 -4 22 -6 36 -4z m749 -58 c-6 -2 -18 4 -27 13 -15 15 -15 15 10
4 15 -7 23 -15 17 -17z m18 -61 c1 -14 -4 -20 -18 -20 -10 0 -19 4 -19 10 0 5
8 6 18 3 15 -6 15 -5 3 10 -11 14 -11 17 1 17 7 0 14 -9 15 -20z m-8 -144 c9
-11 9 -16 0 -22 -8 -4 -9 -3 -5 4 4 7 2 12 -3 12 -6 0 -11 -7 -11 -16 0 -8 -5
-12 -10 -9 -7 4 -7 13 0 26 13 23 14 23 29 5z m-309 -10 c0 -3 -4 -8 -10 -11
-5 -3 -10 -1 -10 4 0 6 5 11 10 11 6 0 10 -2 10 -4z m284 -78 c-1 -13 -3 -25
-3 -27 -1 -3 -6 0 -13 7 -8 8 -8 15 2 27 16 20 17 19 14 -7z m40 7 c-4 -8 -10
-15 -15 -15 -4 0 -6 7 -3 15 4 8 10 15 15 15 4 0 6 -7 3 -15z m-269 -45 c3 -5
1 -10 -4 -10 -6 0 -11 5 -11 10 0 6 2 10 4 10 3 0 8 -4 11 -10z m108 -37 c-7
-3 -13 -12 -13 -21 0 -12 -3 -13 -12 -4 -9 9 -8 15 8 26 10 8 21 12 24 9 3 -3
-1 -8 -7 -10z m57 -35 c0 -3 -9 -4 -20 -1 -11 3 -20 10 -20 15 0 5 5 6 11 2 8
-4 9 1 5 17 -7 24 -7 24 8 -1 9 -14 15 -28 16 -32z"/>
</g>
</svg>
